<?xml version="1.0" encoding="UTF-8" standalone="no"?>
<!-- Created with Inkscape (http://www.inkscape.org/) -->

<svg
   xmlns:dc="http://purl.org/dc/elements/1.1/"
   xmlns:cc="http://creativecommons.org/ns#"
   xmlns:rdf="http://www.w3.org/1999/02/22-rdf-syntax-ns#"
   xmlns:svg="http://www.w3.org/2000/svg"
   xmlns="http://www.w3.org/2000/svg"
   xmlns:sodipodi="http://sodipodi.sourceforge.net/DTD/sodipodi-0.dtd"
   xmlns:inkscape="http://www.inkscape.org/namespaces/inkscape"
   width="297mm"
   height="210mm"
   viewBox="0 0 1052.3622 744.09448"
   id="svg2"
   version="1.1"
   inkscape:version="0.91 r13725"
   sodipodi:docname="04_square.t.svg">
  <style
     type="text/css"
     id="style6382"><![CDATA[

.vp {;stroke-opacity:0.5;fill:none;stroke:gray;stroke-width:0.45;}
.vc {;stroke-opacity:1;fill:yellow;fill-opacity:0.3;stroke:white;stroke-width:0.495;}

]]></style>
  <defs>
        <marker id="edge_arrow"
                viewBox="0 0 10 10" 
                refX="1" refY="5"
                markerWidth="6" 
                markerHeight="6"
                orient="auto"
                fill="currentColor">
            <path d="M 0 0 L 10 5 L 0 10 z" />
	    </marker>
        <marker id="inf_edge_arrow"
                viewBox="0 0 10 10" 
                refX="1" refY="5"
                markerWidth="6" 
                markerHeight="6"
                orient="auto"
                fill="red">
            <path d="M 0 0 L 10 5 L 0 10 z" />
	    </marker>
  </defs>
  <sodipodi:namedview
     id="base"
     pagecolor="#111111"
     bordercolor="#666666"
     borderopacity="1.0"
     inkscape:pageopacity="0.0"
     inkscape:pageshadow="2"
     inkscape:zoom="0.93902268"
     inkscape:cx="327.7514"
     inkscape:cy="450.3348"
     inkscape:document-units="mm"
     inkscape:current-layer="test_path_container"
     showgrid="false"
     inkscape:window-width="1280"
     inkscape:window-height="1000"
     inkscape:window-x="0"
     inkscape:window-y="24"
     inkscape:window-maximized="1" />
  <metadata
     id="metadata7">
    <rdf:RDF>
      <cc:Work
         rdf:about="">
        <dc:format>image/svg+xml</dc:format>
        <dc:type
           rdf:resource="http://purl.org/dc/dcmitype/StillImage" />
        <dc:title />
      </cc:Work>
    </rdf:RDF>
  </metadata>
  <g
     inkscape:label="Test Geometry"
     inkscape:groupmode="layer"
     id="test geometry"
     transform="translate(0,-308.26772)">
    <g
       id="test_path_container"
       transform="matrix(1,0,0,-1,144.0575,855.35553)">
      <path
         style="opacity:1;fill:none;fill-opacity:1;stroke:#0000ff;stroke-width:0.30000001;stroke-linecap:round;stroke-linejoin:round;stroke-miterlimit:4;stroke-dasharray:none;stroke-opacity:1"
         d="M 0,0 L 400,0 L 400,400 L 0,400 Z"
         id="path3348"
         inkscape:connector-curvature="0"
         class="test_path"
         sodipodi:nodetypes="cc" />
      <g
         id="test result"
         inkscape:groupmode="layer"
         inkscape:label="Test Result" ><path class="vc" style="fill-rule:non-zero;fill-opacity:0.7;fill:#7d5959;stroke:yellow;stroke-width:0.45;" d="M0,0L0,400L0,400L0,400L0,400L400,400L400,400L400,400L400,400L400,0L400,0L400,0L400,0L0,0L0,0L0,0ZM0.000000,0.000000L0.000000,0.000000L0.000000,0.000000L0.000000,0.000000L400.000000,-0.000000L400.000000,-0.000000L400.000000,-0.000000L400.000000,-0.000000L400.000000,400.000000L400.000000,400.000000L400.000000,400.000000L400.000000,400.000000L-0.000000,400.000000L-0.000000,400.000000L-0.000000,400.000000L-0.000000,400.000000L0.000000,0.000000Z" />
<path class="vc" style="fill-rule:non-zero;fill-opacity:0.7;fill:#f1f1ff;stroke:yellow;stroke-width:0.45;" d="M400,0L400,200L400,400L200,400L0,400L0,200L0,0L200,0ZM200.000000,200.000000L0.000000,0.000000L200.000000,200.000000L-0.000000,400.000000L200.000000,200.000000L400.000000,400.000000L200.000000,200.000000L400.000000,-0.000000L200.000000,200.000000Z" />
<g inkscape:groupmode="layer" inkscape:label="external secondary" id="external secondary">
<g>
<path class="vp inf" id="27000528" previd="27000656" nextid="27001040" style="stroke:orange;color:orange;" marker-end="url(#inf_edge_arrow)" d="M0.000000,0.000000L-113.137085,0.000000" />
<circle id="27000528_foot" cx="0" cy="0" r="0.9" style="fill:green" />
</g>
<g>
<path class="vp inf" id="27000656" previd="27000784" nextid="27000528" style="stroke:orange;color:orange;" marker-end="url(#inf_edge_arrow)" d="M-113.137085,0.000000L0.000000,0.000000" />
<circle id="27000656_foot" cx="0" cy="0" r="0.9" style="fill:green" />
</g>
<g>
<path class="vp inf" id="27000784" previd="27000912" nextid="27000656" style="stroke:orange;color:orange;" marker-end="url(#inf_edge_arrow)" d="M-0.000000,400.000000L-113.137085,400.000000" />
<circle id="27000784_foot" cx="0" cy="400" r="0.9" style="fill:green" />
</g>
<g>
<path class="vp inf" id="27000912" previd="27001552" nextid="27000784" style="stroke:orange;color:orange;" marker-end="url(#inf_edge_arrow)" d="M-113.137085,400.000000L-0.000000,400.000000" />
<circle id="27000912_foot" cx="0" cy="400" r="0.9" style="fill:green" />
</g>
<g>
<path class="vp inf" id="27001040" previd="27000528" nextid="27001168" style="stroke:orange;color:orange;" marker-end="url(#inf_edge_arrow)" d="M-0.000000,-113.137085L0.000000,0.000000" />
<circle id="27001040_foot" cx="0" cy="0" r="0.9" style="fill:green" />
</g>
<g>
<path class="vp inf" id="27001168" previd="27001040" nextid="27002064" style="stroke:orange;color:orange;" marker-end="url(#inf_edge_arrow)" d="M0.000000,0.000000L0.000000,-113.137085" />
<circle id="27001168_foot" cx="0" cy="0" r="0.9" style="fill:green" />
</g>
<g>
<path class="vp inf" id="27001552" previd="27001680" nextid="27000912" style="stroke:orange;color:orange;" marker-end="url(#inf_edge_arrow)" d="M-0.000000,400.000000L0.000000,513.137085" />
<circle id="27001552_foot" cx="0" cy="400" r="0.9" style="fill:green" />
</g>
<g>
<path class="vp inf" id="27001680" previd="27003472" nextid="27001552" style="stroke:orange;color:orange;" marker-end="url(#inf_edge_arrow)" d="M-0.000000,513.137085L-0.000000,400.000000" />
<circle id="27001680_foot" cx="0" cy="400" r="0.9" style="fill:green" />
</g>
<g>
<path class="vp inf" id="27002064" previd="27001168" nextid="27002192" style="stroke:orange;color:orange;" marker-end="url(#inf_edge_arrow)" d="M400.000000,-113.137085L400.000000,-0.000000" />
<circle id="27002064_foot" cx="400" cy="0" r="0.9" style="fill:green" />
</g>
<g>
<path class="vp inf" id="27002192" previd="27002064" nextid="27002320" style="stroke:orange;color:orange;" marker-end="url(#inf_edge_arrow)" d="M400.000000,-0.000000L400.000000,-113.137085" />
<circle id="27002192_foot" cx="400" cy="0" r="0.9" style="fill:green" />
</g>
<g>
<path class="vp inf" id="27002320" previd="27002192" nextid="27002448" style="stroke:orange;color:orange;" marker-end="url(#inf_edge_arrow)" d="M513.137085,-0.000000L400.000000,-0.000000" />
<circle id="27002320_foot" cx="400" cy="0" r="0.9" style="fill:green" />
</g>
<g>
<path class="vp inf" id="27002448" previd="27002320" nextid="27003088" style="stroke:orange;color:orange;" marker-end="url(#inf_edge_arrow)" d="M400.000000,-0.000000L513.137085,0.000000" />
<circle id="27002448_foot" cx="400" cy="0" r="0.9" style="fill:green" />
</g>
<g>
<path class="vp inf" id="27003088" previd="27002448" nextid="27003216" style="stroke:orange;color:orange;" marker-end="url(#inf_edge_arrow)" d="M513.137085,400.000000L400.000000,400.000000" />
<circle id="27003088_foot" cx="400" cy="400" r="0.9" style="fill:green" />
</g>
<g>
<path class="vp inf" id="27003216" previd="27003088" nextid="27003344" style="stroke:orange;color:orange;" marker-end="url(#inf_edge_arrow)" d="M400.000000,400.000000L513.137085,400.000000" />
<circle id="27003216_foot" cx="400" cy="400" r="0.9" style="fill:green" />
</g>
<g>
<path class="vp inf" id="27003344" previd="27003216" nextid="27003472" style="stroke:orange;color:orange;" marker-end="url(#inf_edge_arrow)" d="M400.000000,513.137085L400.000000,400.000000" />
<circle id="27003344_foot" cx="400" cy="400" r="0.9" style="fill:green" />
</g>
<g>
<path class="vp inf" id="27003472" previd="27003344" nextid="27001680" style="stroke:orange;color:orange;" marker-end="url(#inf_edge_arrow)" d="M400.000000,400.000000L400.000000,513.137085" />
<circle id="27003472_foot" cx="400" cy="400" r="0.9" style="fill:green" />
</g>
</g><g inkscape:groupmode="layer" inkscape:label="external primary" id="external primary">
</g><g inkscape:groupmode="layer" inkscape:label="internal secondary" id="internal secondary">
</g><g inkscape:groupmode="layer" inkscape:label="internal primary" id="internal primary">
<g>
<path class="vp" id="27001296" previd="27002704" nextid="27001424" style="stroke:blue;color:blue;"  color="silver" marker-end="url(#edge_arrow)" d="M200.000000,200.000000L0.000000,0.000000" />
<circle id="27001296_foot" cx="200" cy="0" r="0.9" style="fill:green" />
</g>
<g>
<path class="vp" id="27001424" previd="27001296" nextid="27001808" style="stroke:blue;color:blue;"  color="silver" marker-end="url(#edge_arrow)" d="M0.000000,0.000000L200.000000,200.000000" />
<circle id="27001424_foot" cx="0" cy="0" r="0.9" style="fill:green" />
</g>
<g>
<path class="vp" id="27001808" previd="27001424" nextid="27001936" style="stroke:blue;color:blue;"  color="silver" marker-end="url(#edge_arrow)" d="M200.000000,200.000000L-0.000000,400.000000" />
<circle id="27001808_foot" cx="0" cy="200" r="0.9" style="fill:green" />
</g>
<g>
<path class="vp" id="27001936" previd="27001808" nextid="27002960" style="stroke:blue;color:blue;"  color="silver" marker-end="url(#edge_arrow)" d="M-0.000000,400.000000L200.000000,200.000000" />
<circle id="27001936_foot" cx="0" cy="400" r="0.9" style="fill:green" />
</g>
<g>
<path class="vp" id="27002576" previd="27002832" nextid="27002704" style="stroke:blue;color:blue;"  color="silver" marker-end="url(#edge_arrow)" d="M200.000000,200.000000L400.000000,-0.000000" />
<circle id="27002576_foot" cx="400" cy="200" r="0.9" style="fill:green" />
</g>
<g>
<path class="vp" id="27002704" previd="27002576" nextid="27001296" style="stroke:blue;color:blue;"  color="silver" marker-end="url(#edge_arrow)" d="M400.000000,-0.000000L200.000000,200.000000" />
<circle id="27002704_foot" cx="400" cy="0" r="0.9" style="fill:green" />
</g>
<g>
<path class="vp" id="27002832" previd="27002960" nextid="27002576" style="stroke:blue;color:blue;"  color="silver" marker-end="url(#edge_arrow)" d="M400.000000,400.000000L200.000000,200.000000" />
<circle id="27002832_foot" cx="400" cy="400" r="0.9" style="fill:green" />
</g>
<g>
<path class="vp" id="27002960" previd="27001936" nextid="27002832" style="stroke:blue;color:blue;"  color="silver" marker-end="url(#edge_arrow)" d="M200.000000,200.000000L400.000000,400.000000" />
<circle id="27002960_foot" cx="200" cy="400" r="0.9" style="fill:green" />
</g>
</g><g inkscape:groupmode="layer" inkscape:label="limbo 2ndary" id="limbo 2ndary">
</g><g inkscape:groupmode="layer" inkscape:label="limbo primary" id="limbo primary">
</g></g>
    </g>
    <text
       xml:space="preserve"
       style="font-style:normal;font-weight:normal;font-size:40px;line-height:125%;font-family:Sans;letter-spacing:0px;word-spacing:0px;fill:#000000;fill-opacity:1;stroke:none;stroke-width:1px;stroke-linecap:butt;stroke-linejoin:miter;stroke-opacity:1"
       x="802.98932"
       y="1030.0981"
       id="test_scale"
       sodipodi:linespacing="125%"
       test_scale="text3430"><tspan
         sodipodi:role="line"
         id="tspan3438"
         x="802.98932"
         y="1030.0981">10000</tspan></text>
    <text
       xml:space="preserve"
       style="font-style:normal;font-weight:normal;font-size:40px;line-height:125%;font-family:Sans;letter-spacing:0px;word-spacing:0px;fill:#000000;fill-opacity:1;stroke:none;stroke-width:1px;stroke-linecap:butt;stroke-linejoin:miter;stroke-opacity:1"
       x="810.41071"
       y="978.14874"
       id="text3434"
       sodipodi:linespacing="125%"><tspan
         sodipodi:role="line"
         id="tspan3436"
         x="810.41071"
         y="978.14874">scale:</tspan></text>
  </g>
</svg>
